{
 "accessors": [
  {
   "componentType": 5126,
   "type": "VEC3",
   "count": 42388,
   "max": [
    6.577935218811035,
    16.508209228515625,
    0.6759240031242371
   ],
   "min": [
    -6.577935218811035,
    -0.06269100308418274,
    -1.8494750261306763
   ],
   "bufferView": 0
  },
  {
   "componentType": 5126,
   "type": "VEC3",
   "count": 42388,
   "bufferView": 1
  },
  {
   "componentType": 5126,
   "type": "VEC2",
   "count": 42388,
   "bufferView": 2
  },
  {
   "componentType": 5123,
   "type": "SCALAR",
   "count": 63546,
   "bufferView": 3
  }
 ],
 "asset": {
  "version": "2.0",
  "generator": "clara.io"
 },
 "bufferViews": [
  {
   "buffer": 0,
   "byteOffset": 0,
   "byteLength": 508656,
   "target": 34962,
   "byteStride": 12
  },
  {
   "buffer": 0,
   "byteOffset": 508656,
   "byteLength": 508656,
   "target": 34962,
   "byteStride": 12
  },
  {
   "buffer": 0,
   "byteOffset": 1017312,
   "byteLength": 339104,
   "target": 34962,
   "byteStride": 8
  },
  {
   "buffer": 0,
   "byteOffset": 1356416,
   "byteLength": 127092,
   "target": 34963
  }
 ],
 "buffers": [
  {
   "byteLength": 1483508,
   "uri": "data:application/octet-stream;base64,"
  }
 ],
 "materials": [
  {
   "name": "Default-Body_M_GeoRndr",
   "pbrMetallicRoughness": {
    "baseColorFactor": [
     0.7490196078431373,
     0.7490196078431373,
     0.7490196078431373,
     1
    ]
   },
   "doubleSided": true
  }
 ],
 "meshes": [
  {
   "primitives": [
    {
     "indices": 3,
     "material": 0,
     "mode": 4,
     "attributes": {
      "POSITION": 0,
      "NORMAL": 1,
      "TEXCOORD_0": 2
     }
    }
   ]
  }
 ],
 "nodes": [
  {
   "name": "Body_M_GeoRndr",
   "mesh": 0
  }
 ],
 "scene": 0,
 "scenes": [
  {
   "nodes": [
    0
   ]
  }
 ]
}