{
 "accessors": [
  {
   "componentType": 5126,
   "type": "VEC3",
   "count": 13622,
   "max": [
    1.7190120220184326,
    9,
    0.6759240031242371
   ],
   "min": [
    -1.7190120220184326,
    -0.06269100308418274,
    -1.8494750261306763
   ],
   "bufferView": 0
  },
  {
   "componentType": 5126,
   "type": "VEC3",
   "count": 13622,
   "bufferView": 1
  },
  {
   "componentType": 5126,
   "type": "VEC2",
   "count": 13622,
   "bufferView": 2
  },
  {
   "componentType": 5123,
   "type": "SCALAR",
   "count": 20430,
   "bufferView": 3
  }
 ],
 "asset": {
  "version": "2.0",
  "generator": "clara.io"
 },
 "bufferViews": [
  {
   "buffer": 0,
   "byteOffset": 0,
   "byteLength": 163464,
   "target": 34962,
   "byteStride": 12
  },
  {
   "buffer": 0,
   "byteOffset": 163464,
   "byteLength": 163464,
   "target": 34962,
   "byteStride": 12
  },
  {
   "buffer": 0,
   "byteOffset": 326928,
   "byteLength": 108976,
   "target": 34962,
   "byteStride": 8
  },
  {
   "buffer": 0,
   "byteOffset": 435904,
   "byteLength": 40860,
   "target": 34963
  }
 ],
 "buffers": [
  {
   "byteLength": 476764,
   "uri": "data:application/octet-stream;base64,"
  }
 ],
 "materials": [
  {
   "name": "Default-Body_M_GeoRndr",
   "pbrMetallicRoughness": {
    "baseColorFactor": [
     0.7490196078431373,
     0.7490196078431373,
     0.7490196078431373,
     1
    ]
   },
   "doubleSided": true
  }
 ],
 "meshes": [
  {
   "primitives": [
    {
     "indices": 3,
     "material": 0,
     "mode": 4,
     "attributes": {
      "POSITION": 0,
      "NORMAL": 1,
      "TEXCOORD_0": 2
     }
    }
   ]
  }
 ],
 "nodes": [
  {
   "name": "Body_M_GeoRndr",
   "mesh": 0
  }
 ],
 "scene": 0,
 "scenes": [
  {
   "nodes": [
    0
   ]
  }
 ]
}