{
  "accessors": [
    {
      "bufferView": 1,
      "componentType": 5126,
      "count": 24050,
      "max": [
        4.4044280052185059,
        1.6111842393875122,
        3.4242689609527588
      ],
      "min": [
        -4.4044280052185059,
        -0.80805349349975586,
        -11.701205253601074
      ],
      "type": "VEC3"
    },
    {
      "bufferView": 1,
      "byteOffset": 288600,
      "componentType": 5126,
      "count": 24050,
      "max": [
        0.9998663067817688,
        0.99999958276748657,
        0.99996745586395264
      ],
      "min": [
        -0.9998663067817688,
        -0.99998313188552856,
        -0.99998432397842407
      ],
      "type": "VEC3"
    },
    {
      "bufferView": 0,
      "componentType": 5125,
      "count": 144114,
      "max": [
        24049
      ],
      "min": [
        0
      ],
      "type": "SCALAR"
    }
  ],
  "asset": {
    "extras": {
      "author": "Alice.Marion.Crowe (https://sketchfab.com/Alice.Marion.Crowe)",
      "license": "CC-BY-4.0 (http://creativecommons.org/licenses/by/4.0/)",
      "source": "https://sketchfab.com/models/3cb6f00cbbf14768b9021f02b1e294fa",
      "title": "Body Base"
    },
    "generator": "Sketchfab-3.27.1",
    "version": "2.0"
  },
  "bufferViews": [
    {
      "buffer": 0,
      "byteLength": 576456,
      "byteOffset": 0,
      "name": "floatBufferViews",
      "target": 34963
    },
    {
      "buffer": 0,
      "byteLength": 577200,
      "byteOffset": 576456,
      "byteStride": 12,
      "name": "floatBufferViews",
      "target": 34962
    }
  ],
  "buffers": [
    {
      "byteLength": 1153656,
      "uri": "scene.bin"
    }
  ],
  "extensionsRequired": [
    "KHR_materials_pbrSpecularGlossiness"
  ],
  "extensionsUsed": [
    "KHR_materials_pbrSpecularGlossiness"
  ],
  "materials": [
    {
      "doubleSided": false,
      "emissiveFactor": [
        0,
        0,
        0
      ],
      "extensions": {
        "KHR_materials_pbrSpecularGlossiness": {
          "diffuseFactor": [
            1,
            1,
            1,
            1
          ],
          "glossinessFactor": 0.40439393010000002,
          "specularFactor": [
            0,
            0,
            0
          ]
        }
      },
      "name": "material_0"
    }
  ],
  "meshes": [
    {
      "primitives": [
        {
          "attributes": {
            "NORMAL": 1,
            "POSITION": 0
          },
          "indices": 2,
          "material": 0,
          "mode": 4
        }
      ]
    }
  ],
  "nodes": [
    {
      "children": [
        1
      ],
      "name": "RootNode (gltf orientation matrix)",
      "rotation": [
        -0.70710678118654746,
        -0,
        -0,
        0.70710678118654757
      ]
    },
    {
      "children": [
        2
      ],
      "name": "RootNode (model correction matrix)"
    },
    {
      "children": [
        3
      ],
      "name": "bodyBase1.OBJ.cleaner.materialmerger.gles"
    },
    {
      "mesh": 0,
      "name": ""
    }
  ],
  "scene": 0,
  "scenes": [
    {
      "name": "OSG_Scene",
      "nodes": [
        0
      ]
    }
  ]
}

