{
 "accessors": [
  {
   "componentType": 5126,
   "type": "VEC3",
   "count": 28942,
   "max": [
    6.577935218811035,
    16.508209228515625,
    0.5830690264701843
   ],
   "min": [
    -6.577935218811035,
    9,
    -1.8351229429244995
   ],
   "bufferView": 0
  },
  {
   "componentType": 5126,
   "type": "VEC3",
   "count": 28942,
   "bufferView": 1
  },
  {
   "componentType": 5126,
   "type": "VEC2",
   "count": 28942,
   "bufferView": 2
  },
  {
   "componentType": 5123,
   "type": "SCALAR",
   "count": 43116,
   "bufferView": 3
  }
 ],
 "asset": {
  "version": "2.0",
  "generator": "clara.io"
 },
 "bufferViews": [
  {
   "buffer": 0,
   "byteOffset": 0,
   "byteLength": 347304,
   "target": 34962,
   "byteStride": 12
  },
  {
   "buffer": 0,
   "byteOffset": 347304,
   "byteLength": 347304,
   "target": 34962,
   "byteStride": 12
  },
  {
   "buffer": 0,
   "byteOffset": 694608,
   "byteLength": 231536,
   "target": 34962,
   "byteStride": 8
  },
  {
   "buffer": 0,
   "byteOffset": 926144,
   "byteLength": 86232,
   "target": 34963
  }
 ],
 "buffers": [
  {
   "byteLength": 1012376,
   "uri": "data:application/octet-stream;base64,"
  }
 ],
 "materials": [
  {
   "name": "Default-Body_M_GeoRndr",
   "pbrMetallicRoughness": {
    "baseColorFactor": [
     0.7490196078431373,
     0.7490196078431373,
     0.7490196078431373,
     1
    ]
   },
   "doubleSided": true
  }
 ],
 "meshes": [
  {
   "primitives": [
    {
     "indices": 3,
     "material": 0,
     "mode": 4,
     "attributes": {
      "POSITION": 0,
      "NORMAL": 1,
      "TEXCOORD_0": 2
     }
    }
   ]
  }
 ],
 "nodes": [
  {
   "name": "Body_M_GeoRndr",
   "mesh": 0
  }
 ],
 "scene": 0,
 "scenes": [
  {
   "nodes": [
    0
   ]
  }
 ]
}